<svg width="128" height="128" xmlns="http://www.w3.org/2000/svg">
  <rect width="128" height="128" fill="#000000"/>
  <rect x="0" y="0" width="8" height="8" fill="#ffffff"/>
  <rect x="16" y="0" width="8" height="8" fill="#ffffff"/>
  <rect x="32" y="0" width="8" height="8" fill="#ffffff"/>
  <rect x="48" y="0" width="8" height="8" fill="#ffffff"/>
  <rect x="64" y="0" width="8" height="8" fill="#ffffff"/>
  <rect x="80" y="0" width="8" height="8" fill="#ffffff"/>
  <rect x="96" y="0" width="8" height="8" fill="#ffffff"/>
  <rect x="112" y="0" width="8" height="8" fill="#ffffff"/>
  <rect x="8" y="8" width="8" height="8" fill="#ffffff"/>
  <rect x="24" y="8" width="8" height="8" fill="#ffffff"/>
  <rect x="40" y="8" width="8" height="8" fill="#ffffff"/>
  <rect x="56" y="8" width="8" height="8" fill="#ffffff"/>
  <rect x="72" y="8" width="8" height="8" fill="#ffffff"/>
  <rect x="88" y="8" width="8" height="8" fill="#ffffff"/>
  <rect x="104" y="8" width="8" height="8" fill="#ffffff"/>
  <rect x="120" y="8" width="8" height="8" fill="#ffffff"/>
  <text x="64" y="64" font-family="monospace" font-size="12" fill="#ffffff" text-anchor="middle">STATIC</text>
</svg>
